<?xml version="1.0" encoding="UTF-8" standalone="no"?>
<svg
   xmlns:dc="http://purl.org/dc/elements/1.1/"
   xmlns:cc="http://creativecommons.org/ns#"
   xmlns:rdf="http://www.w3.org/1999/02/22-rdf-syntax-ns#"
   xmlns:svg="http://www.w3.org/2000/svg"
   xmlns="http://www.w3.org/2000/svg"
   viewBox="0 0 354 274.33334"
   height="274.33334"
   width="354"
   xml:space="preserve"
   id="svg2"
   version="1.1"><metadata
     id="metadata8"><rdf:RDF><cc:Work
         rdf:about=""><dc:format>image/svg+xml</dc:format><dc:type
           rdf:resource="http://purl.org/dc/dcmitype/StillImage" /><dc:title></dc:title></cc:Work></rdf:RDF></metadata><defs
     id="defs6"><clipPath
       id="clipPath18"
       clipPathUnits="userSpaceOnUse"><path
         id="path16"
         d="M 0,205.75 H 265.5 V 0 H 0 Z" /></clipPath><clipPath
       id="clipPath34"
       clipPathUnits="userSpaceOnUse"><path
         id="path32"
         d="M 0,205.75 H 265.5 V 0 H 0 Z" /></clipPath><clipPath
       id="clipPath50"
       clipPathUnits="userSpaceOnUse"><path
         id="path48"
         d="M 0,205.75 H 265.5 V 0 H 0 Z" /></clipPath><clipPath
       id="clipPath62"
       clipPathUnits="userSpaceOnUse"><path
         id="path60"
         d="M 0,205.75 H 265.5 V 0 H 0 Z" /></clipPath></defs><g
     transform="matrix(1.3333333,0,0,-1.3333333,0,274.33333)"
     id="g10"><g
       id="g12"><g
         clip-path="url(#clipPath18)"
         id="g14"><g
           transform="translate(68.4167,100.6667)"
           id="g20"><path
             id="path22"
             style="fill:#ef9141;fill-opacity:1;fill-rule:nonzero;stroke:none"
             d="m 0,0 c 0,0 33,52 111,42 0,0 -11,51 43,50.5 0,0 44,-3.996 32,-46.248 0,0 -4,-13.252 -25,-23.752 0,0 -8.5,-2 -7,-9 0,0 2.5,-6.5 3.5,-13.5 0,0 14.5,-56.5 -39,-84.5 0,0 -42.5,-22 -96,18.5 0,0 -2.5,1.5 -12.5,13.5 0,0 -9,1.5 -10,-3.5 0,0 -35,-15 -53.5,10 0,0 -18,35.5 12.5,51 0,0 19.5,15 41,-5" /></g><g
           transform="translate(68.4167,100.6667)"
           id="g24"><path
             id="path26"
             style="fill:none;stroke:#1e130f;stroke-width:6;stroke-linecap:butt;stroke-linejoin:miter;stroke-miterlimit:10;stroke-dasharray:none;stroke-opacity:1"
             d="m 0,0 c 0,0 33,52 111,42 0,0 -11,51 43,50.5 0,0 44,-3.996 32,-46.248 0,0 -4,-13.252 -25,-23.752 0,0 -8.5,-2 -7,-9 0,0 2.5,-6.5 3.5,-13.5 0,0 14.5,-56.5 -39,-84.5 0,0 -42.5,-22 -96,18.5 0,0 -2.5,1.5 -12.5,13.5 0,0 -9,1.5 -10,-3.5 0,0 -35,-15 -53.5,10 0,0 -18,35.5 12.5,51 0,0 19.5,15 41,-5 z" /></g></g></g><g
       id="g28"><g
         clip-path="url(#clipPath34)"
         id="g30"><g
           transform="translate(89.4167,76.6667)"
           id="g36"><path
             id="path38"
             style="fill:#1e130f;fill-opacity:1;fill-rule:nonzero;stroke:none"
             d="m 0,0 c 0,0 25.375,1.125 28.5,0 3.125,-1.125 15.149,-25 15.149,-25 0,0 11.351,-6 29.851,0 0,0 24.5,7.5 25.5,16.5 0,0 3.5,0.5 -9,24 0,0 -2.88,7 16.31,25 0,0 -12.477,-28.75 -12.06,-30.667 0.417,-1.916 7.917,-15.73 4.333,-22.573 -3.583,-6.843 -12.5,-20.01 -22.166,-21.51 0,0 -25,-9.157 -44.917,22.38 0,0 -21,7.537 -31.5,11.87" /></g><g
           transform="translate(89.4167,76.6667)"
           id="g40"><path
             id="path42"
             style="fill:none;stroke:#1e130f;stroke-width:1;stroke-linecap:butt;stroke-linejoin:miter;stroke-miterlimit:10;stroke-dasharray:none;stroke-opacity:1"
             d="m 0,0 c 0,0 25.375,1.125 28.5,0 3.125,-1.125 15.149,-25 15.149,-25 0,0 11.351,-6 29.851,0 0,0 24.5,7.5 25.5,16.5 0,0 3.5,0.5 -9,24 0,0 -2.88,7 16.31,25 0,0 -12.477,-28.75 -12.06,-30.667 0.417,-1.916 7.917,-15.73 4.333,-22.573 -3.583,-6.843 -12.5,-20.01 -22.166,-21.51 0,0 -25,-9.157 -44.917,22.38 0,0 -21,7.537 -31.5,11.87 z" /></g></g></g><g
       id="g44"><g
         clip-path="url(#clipPath50)"
         id="g46"><g
           transform="translate(70.5833,93.1667)"
           id="g52"><path
             id="path54"
             style="fill:#e6572c;fill-opacity:1;fill-rule:nonzero;stroke:none"
             d="m 0,0 c 0,0 36.667,56.333 115,42 0,0 6,-2.667 3.333,-5.667 0,0 -81,-7.333 -115.333,-41 0,0 -5.514,1.266 -3,4.667" /></g></g></g><g
       id="g56"><g
         clip-path="url(#clipPath62)"
         id="g58"><g
           transform="translate(217.5833,173.1667)"
           id="g64"><path
             id="path66"
             style="fill:#e6572c;fill-opacity:1;fill-rule:nonzero;stroke:none"
             d="m 0,0 c 0,-3.866 -3.283,-7 -7.333,-7 -4.05,0 -7.334,3.134 -7.334,7 0,3.866 3.284,7 7.334,7 C -3.283,7 0,3.866 0,0" /></g><g
           transform="translate(241.25,168.8333)"
           id="g68"><path
             id="path70"
             style="fill:#e6572c;fill-opacity:1;fill-rule:nonzero;stroke:none"
             d="m 0,0 c 0,-3.866 -3.283,-7 -7.333,-7 -4.05,0 -7.334,3.134 -7.334,7 0,3.866 3.284,7 7.334,7 C -3.283,7 0,3.866 0,0" /></g><g
           transform="translate(233.9167,148.5019)"
           id="g72"><path
             id="path74"
             style="fill:#e6572c;fill-opacity:1;fill-rule:nonzero;stroke:none"
             d="m 0,0 c 0,-3.866 -3.283,-7 -7.333,-7 -4.05,0 -7.334,3.134 -7.334,7 0,3.866 3.284,7 7.334,7 C -3.283,7 0,3.866 0,0" /></g><g
           transform="translate(210.25,151.5)"
           id="g76"><path
             id="path78"
             style="fill:#e6572c;fill-opacity:1;fill-rule:nonzero;stroke:none"
             d="m 0,0 c 0,-3.866 -3.283,-7 -7.333,-7 -4.05,0 -7.334,3.134 -7.334,7 0,3.866 3.284,7 7.334,7 C -3.283,7 0,3.866 0,0" /></g><g
           transform="translate(57.3266,63.088)"
           id="g80"><path
             id="path82"
             style="fill:#e6572c;fill-opacity:1;fill-rule:nonzero;stroke:none"
             d="m 0,0 -10.698,-6.783 -19.455,30.686 10.697,6.782 z" /></g><g
           transform="translate(54.2867,90.0478)"
           id="g84"><path
             id="path86"
             style="fill:#e6572c;fill-opacity:1;fill-rule:nonzero;stroke:none"
             d="m 0,0 6.722,-10.736 -30.795,-19.281 -6.722,10.736 z" /></g></g></g></g></svg>