<?xml version="1.0" encoding="UTF-8"?>
<svg version="1.1" xmlns="http://www.w3.org/2000/svg" width="441" height="154">
<path d="M0 0 C2.83488852 2.3624071 3.94330525 4.43632959 5.25 7.875 C5.4375 10.75 5.4375 10.75 5.25 12.875 C6.24 12.545 7.23 12.215 8.25 11.875 C13.61844242 10.36749799 18.26315629 10.08776004 23.5625 12.1875 C28.57032657 15.33194924 29.78865626 17.81997525 31.4375 23.5625 C31.78167969 24.74199219 32.12585938 25.92148438 32.48046875 27.13671875 C32.73441406 28.04035156 32.98835938 28.94398437 33.25 29.875 C33.63671875 28.89917969 34.0234375 27.92335938 34.421875 26.91796875 C34.94729781 25.63255936 35.47337396 24.3474169 36 23.0625 C36.37898438 22.09860352 36.37898438 22.09860352 36.765625 21.11523438 C38.3372354 17.32372429 39.58269308 14.82955369 43.25 12.875 C48.25850161 11.25593755 52.63040293 10.12749366 57.5 12.375 C58.4075 12.87 59.315 13.365 60.25 13.875 C62.59622853 13.25524152 64.92891331 12.58312814 67.25 11.875 C71.6557303 11.7536718 75.00730193 12.17702099 78.87890625 14.3515625 C82.23022153 17.91820117 82.71065742 21.4048333 83.5625 26.125 C83.73072266 26.96546875 83.89894531 27.8059375 84.07226562 28.671875 C84.48276495 30.73610019 84.86882559 32.80515909 85.25 34.875 C85.56453125 33.85019531 85.8790625 32.82539062 86.203125 31.76953125 C86.63484559 30.40867287 87.06716934 29.04800573 87.5 27.6875 C87.80744141 26.67719727 87.80744141 26.67719727 88.12109375 25.64648438 C89.49988436 21.36387719 91.02666635 18.1477334 94.25 14.875 C99.22287777 13.49364506 102.51708263 13.91257085 107.25 15.875 C107.683125 15.400625 108.11625 14.92625 108.5625 14.4375 C111.64638948 11.58204678 115.00334231 11.58944563 119.0625 11.6640625 C124.34880272 12.17381312 127.98060536 13.65390805 131.81640625 17.34375 C135.09612113 21.47700364 135.93586672 26.17929778 137 31.25 C137.20753906 32.1575 137.41507813 33.065 137.62890625 34 C139.1690146 40.89571093 140.47179307 47.77762163 140.25 54.875 C141.466875 54.648125 142.68375 54.42125 143.9375 54.1875 C147.04983913 53.7970829 148.1003812 53.80850276 151.0625 55.125 C155.97727273 59.05681818 155.97727273 59.05681818 157.25 62.875 C158.45350291 81.71672591 158.45350291 81.71672591 153.25 87.875 C149.49588637 91.74673599 146.30536443 93.78316567 140.80552673 94.02890015 C139.35339803 94.04705149 137.9011933 94.05961835 136.44897461 94.06787109 C135.25809235 94.08013733 135.25809235 94.08013733 134.04315186 94.09265137 C131.41289008 94.11748176 128.78268238 94.13401964 126.15234375 94.1484375 C125.2518738 94.15376118 124.35140385 94.15908485 123.42364693 94.16456985 C118.65296404 94.19129736 113.88230722 94.21066937 109.11157227 94.22509766 C105.17448556 94.23841014 101.23792043 94.26621335 97.30102539 94.30712891 C92.53829635 94.35662306 87.77603864 94.38123981 83.01306343 94.38832474 C81.20427875 94.39501103 79.3955035 94.41016424 77.58686638 94.43421555 C66.45199079 94.57378168 57.70376842 94.4157963 48.84765625 86.8125 C48.34105469 86.173125 47.83445312 85.53375 47.3125 84.875 C46.7659375 84.194375 46.219375 83.51375 45.65625 82.8125 C44.03290158 80.57588662 42.54722142 78.31682856 41.25 75.875 C40.38375 76.555625 39.5175 77.23625 38.625 77.9375 C35.25 79.875 35.25 79.875 31.875 79.625 C31.00875 79.3775 30.1425 79.13 29.25 78.875 C29.20875 79.926875 29.1675 80.97875 29.125 82.0625 C27.96456388 87.11868596 26.46356096 88.00977855 22.25 90.875 C19.08990467 91.92836511 16.6946864 92.07532888 13.375 92.125 C12.34632813 92.15078125 11.31765625 92.1765625 10.2578125 92.203125 C7.25 91.875 7.25 91.875 4.640625 90.3046875 C2.39543366 88.64763946 2.39543366 88.64763946 0.0390625 89.0546875 C-0.67507813 89.28414063 -1.38921875 89.51359375 -2.125 89.75 C-7.41102326 91.16370389 -11.42355727 90.87960027 -16.5 88.6875 C-19.29321923 86.43740673 -20.36782676 84.1485682 -21.75 80.875 C-22.018125 81.49246094 -22.28625 82.10992187 -22.5625 82.74609375 C-27.50889194 93.43615792 -33.65669457 100.54548111 -44.75 104.875 C-46.09578125 105.42220703 -46.09578125 105.42220703 -47.46875 105.98046875 C-51.74217842 107.14548674 -55.71526964 107.24306646 -60.125 107.25 C-60.93710938 107.27449219 -61.74921875 107.29898438 -62.5859375 107.32421875 C-69.26658248 107.35633724 -74.74232395 105.8443617 -79.58984375 101.05859375 C-79.95207031 100.48238281 -80.31429687 99.90617187 -80.6875 99.3125 C-81.06777344 98.73371094 -81.44804687 98.15492188 -81.83984375 97.55859375 C-84.11129957 93.35688791 -83.96844825 89.2045508 -84 84.5625 C-84.020625 83.81548828 -84.04125 83.06847656 -84.0625 82.29882812 C-84.09684666 77.4087229 -83.43050066 74.12127389 -80.75 69.875 C-77.81791771 67.43159809 -76.06177679 66.90840466 -72.25 66.5 C-67.76638183 66.98038766 -65.46558738 68.52703849 -62 71.25 C-60.31977961 73.43428651 -60.01608249 75.14765448 -59.75 77.875 C-60.1875 80.1875 -60.1875 80.1875 -60.75 81.875 C-58.21255685 81.32791273 -58.21255685 81.32791273 -55.75 79.875 C-54.1883964 76.01692051 -54.6699189 74.09998976 -56.0625 70.1875 C-58.69645368 65.40263605 -62.44170705 61.63321634 -66.1484375 57.6640625 C-73.9376967 49.31341525 -79.65332879 41.82586628 -81.25 30.25 C-80.02824972 22.00318559 -75.89571102 15.42483409 -69.75 9.875 C-60.27636407 3.00585241 -51.39468024 0.81639271 -39.75 1.875 C-32.46437871 3.35459918 -27.73723391 6.06739556 -22.9921875 11.77734375 C-21.59131483 14.14296835 -21.13600039 16.16828995 -20.75 18.875 C-20.09 18.215 -19.43 17.555 -18.75 16.875 C-18.84350073 14.81993538 -18.84350073 14.81993538 -19.3125 12.5625 C-19.71444798 9.46601187 -19.81634313 8.06159006 -18.75 5.0625 C-13.4953676 -0.68475419 -7.45862874 -3.05125721 0 0 Z M-46.75 23.875 C-46.29396415 28.74405972 -45.21495944 31.01980423 -41.8125 34.5 C-41.00425781 35.35980469 -40.19601563 36.21960938 -39.36328125 37.10546875 C-38.50089844 38.01941406 -37.63851562 38.93335938 -36.75 39.875 C-30.24995304 47.06633704 -25.1647128 53.7451363 -21.75 62.875 C-21.42 62.875 -21.09 62.875 -20.75 62.875 C-20.75 52.315 -20.75 41.755 -20.75 30.875 C-23.39 31.865 -26.03 32.855 -28.75 33.875 C-32.54202637 34.2606298 -34.95193441 34.18334352 -38.5 32.8125 C-41.58177014 30.15875349 -42.38450496 27.68401248 -43.75 23.875 C-44.74 23.875 -45.73 23.875 -46.75 23.875 Z M116.25 58.875 C115.59 62.505 114.93 66.135 114.25 69.875 C115.9 69.875 117.55 69.875 119.25 69.875 C119.13590407 68.41577307 119.00834456 66.95759402 118.875 65.5 C118.77058594 64.28183594 118.77058594 64.28183594 118.6640625 63.0390625 C118.42107412 60.67165809 118.42107412 60.67165809 116.25 58.875 Z M65.25 65.875 C65.25 67.195 65.25 68.515 65.25 69.875 C65.91 69.545 66.57 69.215 67.25 68.875 C66.59 67.885 65.93 66.895 65.25 65.875 Z " fill="#060401" transform="translate(276.75,42.125)"/>
<path d="M0 0 C1.18980469 0.44085938 2.37960938 0.88171875 3.60546875 1.3359375 C8.9235594 3.47353788 11.28253907 5.03605079 14.8125 9.625 C15.8025 10.12 15.8025 10.12 16.8125 10.625 C19.79517849 16.17467807 20.30449503 20.82529638 20.25 27.0625 C20.26998047 27.87009766 20.28996094 28.67769531 20.31054688 29.50976562 C20.30347617 38.2845074 16.64119241 44.37027293 10.8125 50.7265625 C6.32562726 54.98558623 2.12560913 58.625 -4.1875 58.625 C-3.9709375 59.54796875 -3.754375 60.4709375 -3.53125 61.421875 C0.73363878 80.84013861 -0.10874389 98.36099264 -8.1875 116.625 C-8.8475 116.625 -9.5075 116.625 -10.1875 116.625 C-10.27 117.18574219 -10.3525 117.74648437 -10.4375 118.32421875 C-13.35831669 127.28443245 -24.30492488 134.65299775 -32.0625 139.375 C-40.42820899 142.7212836 -48.38392708 144.1608891 -57.375 144.0625 C-58.3760376 144.05347656 -59.3770752 144.04445312 -60.40844727 144.03515625 C-81.6075913 143.54559218 -101.29053573 134.5592206 -116.375 119.625 C-117.32071948 118.63276973 -118.26183501 117.63596517 -119.1875 116.625 C-119.8475 116.91375 -120.5075 117.2025 -121.1875 117.5 C-132.92285167 121.90075688 -145.32166863 123.22569891 -157.1875 118.625 C-163.29124946 115.39731565 -167.84195719 112.1576124 -170.35546875 105.55859375 C-173.35281541 95.28033606 -175.21217477 87.31081927 -170.625 77.3125 C-165.58899062 68.19578982 -158.12728018 63.2717645 -148.25 60.3125 C-141.00608065 58.7216785 -134.70147236 60.4318763 -128.1875 63.625 C-127.383125 64.016875 -126.57875 64.40875 -125.75 64.8125 C-125.234375 65.080625 -124.71875 65.34875 -124.1875 65.625 C-123.6925 64.14 -123.6925 64.14 -123.1875 62.625 C-122.5275 62.625 -121.8675 62.625 -121.1875 62.625 C-120.6925 61.14 -120.6925 61.14 -120.1875 59.625 C-119.5275 59.625 -118.8675 59.625 -118.1875 59.625 C-117.8575 58.635 -117.5275 57.645 -117.1875 56.625 C-116.5275 56.625 -115.8675 56.625 -115.1875 56.625 C-115.1875 55.965 -115.1875 55.305 -115.1875 54.625 C-113.17578125 52.93359375 -113.17578125 52.93359375 -110.5 51.0625 C-109.19482422 50.13244141 -109.19482422 50.13244141 -107.86328125 49.18359375 C-105.215949 47.64157102 -103.20194086 47.02149402 -100.1875 46.625 C-100.1875 45.965 -100.1875 45.305 -100.1875 44.625 C-93.99519046 41.67841793 -87.84068686 39.30570042 -81.1875 37.625 C-80.37667969 37.41746094 -79.56585938 37.20992187 -78.73046875 36.99609375 C-67.76248321 34.69972196 -56.33255445 35.44925314 -45.1875 35.625 C-45.23390625 34.71878906 -45.2803125 33.81257813 -45.328125 32.87890625 C-45.55997468 25.05397952 -45.13608707 19.4148213 -41.1875 12.625 C-40.775 11.738125 -40.3625 10.85125 -39.9375 9.9375 C-31.11715627 -1.71795422 -13.17064474 -4.96951263 0 0 Z " fill="#EF903F" transform="translate(176.1875,5.375)"/>
<path d="M0 0 C2.19910094 0.95225866 4.32817465 1.9648054 6.4453125 3.0859375 C6.4453125 3.7459375 6.4453125 4.4059375 6.4453125 5.0859375 C7.3734375 5.55 7.3734375 5.55 8.3203125 6.0234375 C9.6953125 6.7109375 11.0703125 7.3984375 12.4453125 8.0859375 C12.9403125 10.5609375 12.9403125 10.5609375 13.4453125 13.0859375 C20.0453125 13.4159375 26.6453125 13.7459375 33.4453125 14.0859375 C30.4453125 17.0859375 30.4453125 17.0859375 27.4453125 19.0859375 C26.4553125 19.0859375 25.4653125 19.0859375 24.4453125 19.0859375 C24.4453125 19.7459375 24.4453125 20.4059375 24.4453125 21.0859375 C26.1778125 20.8384375 26.1778125 20.8384375 27.9453125 20.5859375 C32.56953334 20.08362597 37.17284515 19.90717911 41.8203125 19.8359375 C42.8731543 19.8040332 42.8731543 19.8040332 43.94726562 19.77148438 C48.95027127 19.73764762 48.95027127 19.73764762 51.421875 21.4765625 C52.4453125 23.0859375 52.4453125 23.0859375 52.4453125 25.0859375 C53.7653125 25.0859375 55.0853125 25.0859375 56.4453125 25.0859375 C56.5690625 25.8078125 56.6928125 26.5296875 56.8203125 27.2734375 C58.04732642 32.79500014 60.60321368 37.2543695 63.4453125 42.0859375 C61.6328125 41.9609375 61.6328125 41.9609375 59.4453125 41.0859375 C56.4453125 36.05022321 56.4453125 36.05022321 56.4453125 33.0859375 C55.7853125 33.0859375 55.1253125 33.0859375 54.4453125 33.0859375 C54.21457031 32.45945313 53.98382813 31.83296875 53.74609375 31.1875 C53.41996094 30.37023437 53.09382813 29.55296875 52.7578125 28.7109375 C52.44457031 27.89882812 52.13132812 27.08671875 51.80859375 26.25 C50.02016032 23.4110541 48.65574749 22.94546062 45.4453125 22.0859375 C42.71931819 21.80928523 42.71931819 21.80928523 39.9453125 21.8984375 C39.0275 21.90488281 38.1096875 21.91132812 37.1640625 21.91796875 C34.50665563 22.08214762 32.03905004 22.49858751 29.4453125 23.0859375 C30.20714844 23.40046875 30.96898437 23.715 31.75390625 24.0390625 C33.90201894 24.92941632 36.04773684 25.82556332 38.19140625 26.7265625 C40.15520413 27.54697266 42.12502901 28.3534324 44.10546875 29.1328125 C48.75420952 31.02645649 51.74590514 32.62604707 54.4453125 37.0859375 C54.4453125 37.7459375 54.4453125 38.4059375 54.4453125 39.0859375 C55.9303125 39.5809375 55.9303125 39.5809375 57.4453125 40.0859375 C57.4453125 40.7459375 57.4453125 41.4059375 57.4453125 42.0859375 C59.4253125 42.5809375 59.4253125 42.5809375 61.4453125 43.0859375 C61.4453125 43.7459375 61.4453125 44.4059375 61.4453125 45.0859375 C62.280625 45.2715625 62.280625 45.2715625 63.1328125 45.4609375 C65.4453125 46.0859375 65.4453125 46.0859375 67.6875 47.109375 C70.90093414 48.24727661 73.47961775 48.3519714 76.8828125 48.3359375 C77.97464844 48.34109375 79.06648438 48.34625 80.19140625 48.3515625 C86.69158735 47.82093547 90.15033282 45.9315556 94.4453125 41.0859375 C95.11433594 40.35117188 95.11433594 40.35117188 95.796875 39.6015625 C98.43524548 36.60832348 100.21639889 33.88439774 101.4453125 30.0859375 C102.4353125 30.0859375 103.4253125 30.0859375 104.4453125 30.0859375 C104.1953125 32.9609375 104.1953125 32.9609375 103.4453125 36.0859375 C101.3828125 37.4609375 101.3828125 37.4609375 99.4453125 38.0859375 C99.7753125 38.4159375 100.1053125 38.7459375 100.4453125 39.0859375 C100.91590074 44.49770221 100.91590074 44.49770221 98.9453125 46.9609375 C98.4503125 47.3321875 97.9553125 47.7034375 97.4453125 48.0859375 C98.1053125 48.0859375 98.7653125 48.0859375 99.4453125 48.0859375 C100.1053125 47.0959375 100.7653125 46.1059375 101.4453125 45.0859375 C102.1053125 45.0859375 102.7653125 45.0859375 103.4453125 45.0859375 C103.4453125 46.4059375 103.4453125 47.7259375 103.4453125 49.0859375 C104.1053125 49.0859375 104.7653125 49.0859375 105.4453125 49.0859375 C105.4453125 49.7459375 105.4453125 50.4059375 105.4453125 51.0859375 C106.4353125 51.0859375 107.4253125 51.0859375 108.4453125 51.0859375 C108.4453125 50.4259375 108.4453125 49.7659375 108.4453125 49.0859375 C109.1053125 49.4159375 109.7653125 49.7459375 110.4453125 50.0859375 C110.4453125 50.4159375 110.4453125 50.7459375 110.4453125 51.0859375 C112.0953125 51.4159375 113.7453125 51.7459375 115.4453125 52.0859375 C115.4453125 52.7459375 115.4453125 53.4059375 115.4453125 54.0859375 C113.77314674 55.62924986 112.03079712 57.09708659 110.2578125 58.5234375 C109.29488281 59.30589844 108.33195313 60.08835938 107.33984375 60.89453125 C97.91676314 68.02860443 89.37915025 69.62747804 77.6953125 69.5234375 C76.54313232 69.51803955 75.39095215 69.5126416 74.20385742 69.50708008 C65.92797062 69.35890943 59.06872688 68.46449615 51.4453125 65.0859375 C50.2284375 64.6321875 49.0115625 64.1784375 47.7578125 63.7109375 C43.1398029 61.44549883 38.7877745 58.83849809 34.4453125 56.0859375 C33.79046875 55.67214844 33.135625 55.25835937 32.4609375 54.83203125 C28.09907974 51.90804253 24.43297077 48.43062736 21.4453125 44.0859375 C21.4453125 43.4259375 21.4453125 42.7659375 21.4453125 42.0859375 C20.1871875 42.0653125 18.9290625 42.0446875 17.6328125 42.0234375 C16.92511719 42.01183594 16.21742187 42.00023437 15.48828125 41.98828125 C13.24225789 42.00330533 13.24225789 42.00330533 10.4453125 43.0859375 C9.9503125 44.0759375 9.9503125 44.0759375 9.4453125 45.0859375 C1.23204554 47.59167996 -9.3518619 49.10665373 -17.5546875 45.8984375 C-23.22584487 42.47211326 -27.15936148 39.38942703 -29.5546875 33.0859375 C-31.13896154 25.30859222 -31.05389659 18.58356476 -28.5546875 11.0859375 C-27.8946875 11.0859375 -27.2346875 11.0859375 -26.5546875 11.0859375 C-26.5546875 10.0959375 -26.5546875 9.1059375 -26.5546875 8.0859375 C-20.6352416 0.41481883 -8.99655638 -3.21895137 0 0 Z " fill="#EE903F" transform="translate(40.5546875,72.9140625)"/>
<path d="M0 0 C1.18980469 0.44085938 2.37960938 0.88171875 3.60546875 1.3359375 C8.9235594 3.47353788 11.28253907 5.03605079 14.8125 9.625 C15.8025 10.12 15.8025 10.12 16.8125 10.625 C19.79517849 16.17467807 20.30449503 20.82529638 20.25 27.0625 C20.26998047 27.87009766 20.28996094 28.67769531 20.31054688 29.50976562 C20.30347617 38.2845074 16.64119241 44.37027293 10.8125 50.7265625 C6.32562726 54.98558623 2.12560913 58.625 -4.1875 58.625 C-3.9709375 59.54796875 -3.754375 60.4709375 -3.53125 61.421875 C0.73363878 80.84013861 -0.10874389 98.36099264 -8.1875 116.625 C-8.8475 116.625 -9.5075 116.625 -10.1875 116.625 C-10.27 117.18574219 -10.3525 117.74648437 -10.4375 118.32421875 C-13.35831669 127.28443245 -24.30492488 134.65299775 -32.0625 139.375 C-40.42820899 142.7212836 -48.38392708 144.1608891 -57.375 144.0625 C-58.3760376 144.05347656 -59.3770752 144.04445312 -60.40844727 144.03515625 C-81.6075913 143.54559218 -101.29053573 134.5592206 -116.375 119.625 C-117.32071948 118.63276973 -118.26183501 117.63596517 -119.1875 116.625 C-119.8475 116.91375 -120.5075 117.2025 -121.1875 117.5 C-132.92285167 121.90075688 -145.32166863 123.22569891 -157.1875 118.625 C-163.29124946 115.39731565 -167.84195719 112.1576124 -170.35546875 105.55859375 C-173.35281541 95.28033606 -175.21217477 87.31081927 -170.625 77.3125 C-165.58899062 68.19578982 -158.12728018 63.2717645 -148.25 60.3125 C-141.00608065 58.7216785 -134.70147236 60.4318763 -128.1875 63.625 C-127.383125 64.016875 -126.57875 64.40875 -125.75 64.8125 C-125.234375 65.080625 -124.71875 65.34875 -124.1875 65.625 C-123.6925 64.14 -123.6925 64.14 -123.1875 62.625 C-122.5275 62.625 -121.8675 62.625 -121.1875 62.625 C-120.6925 61.14 -120.6925 61.14 -120.1875 59.625 C-119.5275 59.625 -118.8675 59.625 -118.1875 59.625 C-117.8575 58.635 -117.5275 57.645 -117.1875 56.625 C-116.5275 56.625 -115.8675 56.625 -115.1875 56.625 C-115.1875 55.965 -115.1875 55.305 -115.1875 54.625 C-113.17578125 52.93359375 -113.17578125 52.93359375 -110.5 51.0625 C-109.19482422 50.13244141 -109.19482422 50.13244141 -107.86328125 49.18359375 C-105.215949 47.64157102 -103.20194086 47.02149402 -100.1875 46.625 C-100.1875 45.965 -100.1875 45.305 -100.1875 44.625 C-93.99519046 41.67841793 -87.84068686 39.30570042 -81.1875 37.625 C-80.37667969 37.41746094 -79.56585938 37.20992187 -78.73046875 36.99609375 C-67.76248321 34.69972196 -56.33255445 35.44925314 -45.1875 35.625 C-45.23390625 34.71878906 -45.2803125 33.81257813 -45.328125 32.87890625 C-45.55997468 25.05397952 -45.13608707 19.4148213 -41.1875 12.625 C-40.775 11.738125 -40.3625 10.85125 -39.9375 9.9375 C-31.11715627 -1.71795422 -13.17064474 -4.96951263 0 0 Z M-35.1875 14.625 C-39.86147629 22.20006502 -40.53563942 32.34059622 -38.6796875 40.9921875 C-38.51726562 41.53101563 -38.35484375 42.06984375 -38.1875 42.625 C-38.97511719 42.46515625 -39.76273437 42.3053125 -40.57421875 42.140625 C-61.20381907 39.19672528 -84.73734944 41.73903055 -101.9609375 54.2890625 C-105.1875 56.625 -105.1875 56.625 -108.1875 57.625 C-109.90108643 59.24338719 -111.5582726 60.92171681 -113.1875 62.625 C-114.39317474 63.83598609 -115.60161476 65.04422398 -116.8125 66.25 C-117.38226563 66.81976563 -117.95203125 67.38953125 -118.5390625 67.9765625 C-119.62805264 69.06555264 -120.74824856 70.12429666 -121.8984375 71.1484375 C-123.51632882 72.67497824 -123.51632882 72.67497824 -123.1875 75.625 C-123.80625 75.13 -124.425 74.635 -125.0625 74.125 C-127.02630904 72.43277227 -127.02630904 72.43277227 -129.1875 72.625 C-129.1875 71.965 -129.1875 71.305 -129.1875 70.625 C-135.14904988 67.46805633 -140.39077982 65.39580593 -147.1875 66.625 C-150.02860459 67.70300777 -152.57199076 69.09041856 -155.1875 70.625 C-155.88746094 70.96917969 -156.58742187 71.31335938 -157.30859375 71.66796875 C-159.40949134 72.73807251 -160.71526376 73.7847047 -162.1875 75.625 C-162.1875 76.615 -162.1875 77.605 -162.1875 78.625 C-162.8475 78.625 -163.5075 78.625 -164.1875 78.625 C-166.91421876 86.80515627 -166.88266558 94.41768787 -164.1875 102.625 C-161.31891794 107.86758101 -158.05805656 111.47841536 -152.44921875 113.71875 C-144.00682869 116.06442005 -134.49816724 115.1604578 -126.1875 112.625 C-125.8575 111.965 -125.5275 111.305 -125.1875 110.625 C-121.44629194 110.02157934 -117.97069079 109.625 -114.1875 109.625 C-113.94 110.181875 -113.6925 110.73875 -113.4375 111.3125 C-106.95435085 123.30632593 -92.2167103 130.17985143 -79.78881836 134.44897461 C-72.49329165 136.61971039 -65.71134511 137.11127253 -58.125 137.0625 C-57.01833984 137.08248047 -55.91167969 137.10246094 -54.77148438 137.12304688 C-43.34751839 137.11629911 -35.25524308 133.29913845 -26.1875 126.625 C-25.135625 125.861875 -24.08375 125.09875 -23 124.3125 C-15.64637953 117.28570711 -8.63666616 105.43067743 -8.04223633 95.10058594 C-8.01762785 91.85861681 -8.00183999 88.61706983 -8 85.375 C-7.98775391 84.25480469 -7.97550781 83.13460937 -7.96289062 81.98046875 C-7.95243997 76.07933304 -8.2957181 71.20575661 -10.1875 65.625 C-10.64419868 62.53387105 -10.7570714 59.70668104 -10.1875 56.625 C-7.64259292 53.68245119 -4.76479608 52.42446704 -1.3125 50.8125 C4.44199387 48.06035076 9.5258269 43.1027885 12.8125 37.625 C14.92798206 30.89392073 14.38037166 23.10581895 11.8125 16.625 C8.26621355 11.25183872 4.05572218 7.498764 -2.1875 5.625 C-5.37823801 5.21514704 -8.53499159 5.09902715 -11.75 5.0625 C-12.55324707 5.04783691 -13.35649414 5.03317383 -14.18408203 5.01806641 C-22.71144427 5.16313119 -29.16171504 8.73934957 -35.1875 14.625 Z " fill="#050203" transform="translate(176.1875,5.375)"/>
<path d="M0 0 C0.76183594 -0.02578125 1.52367187 -0.0515625 2.30859375 -0.078125 C5.32153861 0.36050129 6.46963153 1.01494089 8.5625 3.25 C9.41539054 5.8649387 10.03778309 8.25803727 10.5625 10.9375 C10.88932893 12.46121608 11.21748985 13.98464696 11.546875 15.5078125 C11.7934082 16.67812012 11.7934082 16.67812012 12.04492188 17.87207031 C12.87975913 21.70759619 13.84543172 25.50855417 14.8125 29.3125 C15.15113064 30.65752969 15.48968086 32.00257962 15.828125 33.34765625 C16.07046875 34.30542969 16.3128125 35.26320312 16.5625 36.25 C18.0965021 32.67766634 19.22029835 29.06567289 20.26245117 25.32250977 C25.58517213 6.22732787 25.58517213 6.22732787 30.5625 1.25 C32.7265625 0.8359375 32.7265625 0.8359375 35.1875 0.625 C36.00476563 0.55023438 36.82203125 0.47546875 37.6640625 0.3984375 C38.29054688 0.34945312 38.91703125 0.30046875 39.5625 0.25 C43.50268041 5.1170901 42.96993982 10.11066006 42.93359375 16.0625 C42.95097156 18.21093913 42.96855599 20.3593766 42.98632812 22.5078125 C42.99641185 25.88512179 42.99999379 29.26232469 42.99829102 32.63964844 C43.00185889 35.90592086 43.02918943 39.17137336 43.05859375 42.4375 C43.05041122 43.44594971 43.0422287 44.45439941 43.03379822 45.4934082 C43.04885155 46.91012817 43.04885155 46.91012817 43.06420898 48.35546875 C43.06404282 49.18199951 43.06387665 50.00853027 43.06370544 50.86010742 C43.78009224 54.29255765 44.98647203 55.88000759 47.5625 58.25 C50.96968943 58.98821884 50.96968943 58.98821884 54.86962891 58.84936523 C55.59851822 58.85330795 56.32740753 58.85725067 57.0783844 58.86131287 C59.48264754 58.86801487 61.88500332 58.83888593 64.2890625 58.80859375 C65.96006909 58.80434326 67.63108158 58.80201503 69.30209351 58.80152893 C72.80095241 58.79536596 76.2991705 58.7726751 79.79785156 58.73706055 C84.28840113 58.69171793 88.77837145 58.67703095 93.2691288 58.67332363 C96.71776062 58.66890127 100.16627022 58.65360967 103.61484909 58.6344471 C105.27109139 58.62555328 106.92734677 58.61882893 108.58360672 58.61428642 C110.89401582 58.60527065 113.20389409 58.58290592 115.51416016 58.55639648 C116.83002106 58.54575668 118.14588196 58.53511688 119.50161743 58.52415466 C122.66985244 58.57011848 122.66985244 58.57011848 124.5625 56.25 C124.7296951 53.64613785 124.7296951 53.64613785 124.5625 50.75 C124.4375 47.78125 124.4375 47.78125 124.5625 45.25 C126.5625 43.25 126.5625 43.25 129.5 42.875 C132.5625 43.25 132.5625 43.25 134.2265625 44.87890625 C136.86714554 49.56555509 136.1449755 55.045708 135.5625 60.25 C134.15041717 64.38934086 132.24560534 66.79459644 128.5625 69.25 C125.88759282 69.46492007 123.314659 69.56441321 120.63793945 69.57226562 C119.42760796 69.58716034 119.42760796 69.58716034 118.19282532 69.60235596 C115.52044264 69.6315897 112.84829764 69.64520334 110.17578125 69.65625 C108.31593317 69.66775656 106.45608515 69.67927199 104.59623718 69.6907959 C100.69313452 69.7118151 96.7901142 69.72349993 92.88696289 69.73046875 C87.89777333 69.74141907 82.90968079 69.78942993 77.92083454 69.84641266 C74.07652165 69.8837637 70.23246993 69.89408186 66.38799095 69.8971405 C64.5496339 69.90317591 62.71128048 69.91917373 60.87310219 69.94551086 C44.70008939 70.16063223 44.70008939 70.16063223 39.5871582 66.53808594 C32.02429269 59.16490334 29.95137792 50.5813188 29.70281982 40.38464355 C29.67948501 38.08945856 29.68266579 35.79528106 29.6875 33.5 C29.66933022 31.91663386 29.64851429 30.33329579 29.625 28.75 C29.57371946 24.91630612 29.55802847 21.08401751 29.5625 17.25 C28.60102522 20.4157213 27.64390467 23.58274362 26.6875 26.75 C26.41808594 27.636875 26.14867187 28.52375 25.87109375 29.4375 C22.70812295 39.69243405 22.70812295 39.69243405 20.9375 50.25 C20.86273438 51.013125 20.78796875 51.77625 20.7109375 52.5625 C20.63746094 53.3978125 20.63746094 53.3978125 20.5625 54.25 C18.0875 54.745 18.0875 54.745 15.5625 55.25 C12.0585515 50.45133739 11.13958847 45.12623784 9.875 39.4375 C9.65005859 38.45845703 9.42511719 37.47941406 9.19335938 36.47070312 C8.64191518 34.06546782 8.09857924 31.65869787 7.5625 29.25 C7.54791748 30.33007324 7.53333496 31.41014648 7.51831055 32.52294922 C7.46042454 36.52263838 7.38319227 40.52175876 7.30004883 44.52099609 C7.26675357 46.25332421 7.23873603 47.985762 7.21606445 49.71826172 C7.18260193 52.20588007 7.13029342 54.69248904 7.07421875 57.1796875 C7.06463387 58.34538773 7.06463387 58.34538773 7.05485535 59.53463745 C6.99487305 61.71826172 6.99487305 61.71826172 6.5625 65.25 C3.5625 67.25 3.5625 67.25 -7.4375 67.25 C-7.4375 45.47 -7.4375 23.69 -7.4375 1.25 C-4.69320004 0.33523335 -2.84716906 0.05761556 0 0 Z " fill="#E58C43" transform="translate(292.4375,59.75)"/>
<path d="M0 0 C3.98680576 2.55076882 7.3642574 5.30338431 9.0625 9.83203125 C9.4375 13.01953125 9.4375 13.01953125 9.0625 15.83203125 C5.4183226 18.26148285 3.35008728 17.993827 -0.9375 17.83203125 C-1.35 16.73890625 -1.7625 15.64578125 -2.1875 14.51953125 C-3.59388058 11.30308678 -4.65303333 9.3830294 -7.9375 7.83203125 C-11.52178147 7.33171919 -11.52178147 7.33171919 -14.9375 7.83203125 C-17.80363231 12.13122972 -17.75513924 15.78992263 -16.9375 20.83203125 C-14.90990452 25.17933343 -11.33176016 28.41471908 -8.078125 31.8671875 C-7.03080875 32.98005366 -5.98394386 34.09334473 -4.9375 35.20703125 C-4.15040649 36.04077271 -4.15040649 36.04077271 -3.34741211 36.89135742 C2.96353321 43.69195359 8.44903301 50.97502208 8.2734375 60.59765625 C7.48642843 68.93412266 3.2429153 78.14707258 -3.046875 83.69140625 C-5.2820143 85.24829638 -7.52426508 86.57132404 -9.9375 87.83203125 C-10.84242188 88.34056641 -10.84242188 88.34056641 -11.765625 88.859375 C-18.16639926 91.87887068 -26.04253952 91.61958553 -32.9375 90.83203125 C-37.59795568 88.576138 -40.61201808 85.48299509 -42.9375 80.83203125 C-43.0604938 78.70967318 -43.11305682 76.58291662 -43.125 74.45703125 C-43.13917969 73.31492187 -43.15335938 72.1728125 -43.16796875 70.99609375 C-42.94920034 67.99266309 -42.50830637 66.35277191 -40.9375 63.83203125 C-38.6275 63.83203125 -36.3175 63.83203125 -33.9375 63.83203125 C-31.59212133 67.49668542 -31.9375 70.57883412 -31.9375 74.83203125 C-31.05685073 77.18572932 -31.05685073 77.18572932 -29.9375 78.83203125 C-25.07546733 79.43978533 -22.63182764 78.99741955 -18.625 76.08203125 C-15.863018 73.93322011 -14.18061402 72.12816692 -12.9375 68.83203125 C-12.04475133 60.92259126 -16.29530264 54.82196333 -20.9375 48.83203125 C-23.40593567 45.98194851 -25.96140016 43.21826319 -28.58520508 40.51074219 C-35.0014827 33.86557549 -39.46507092 28.02995276 -39.33984375 18.45703125 C-38.27415358 11.50417888 -32.05562583 6.75035231 -27.0625 2.27734375 C-19.90278746 -2.59231368 -7.9959967 -3.17925933 0 0 Z " fill="#E78C43" transform="translate(241.9375,52.16796875)"/>
<path d="M0 0 C0.86109375 -0.03738281 1.7221875 -0.07476562 2.609375 -0.11328125 C6.37772316 0.49433702 7.72064577 1.41570579 10.25 4.3125 C11.40290615 7.81507085 11.95454747 11.35959137 12.5 15 C12.81488267 16.92103821 13.13244379 18.84163998 13.453125 20.76171875 C13.58364258 21.61080811 13.71416016 22.45989746 13.84863281 23.3347168 C14.05904217 25.30565845 14.05904217 25.30565845 15.25 26.3125 C15.54607956 27.73620961 15.787628 29.17137783 16.00390625 30.609375 C16.13603516 31.4859375 16.26816406 32.3625 16.40429688 33.265625 C16.53900391 34.18859375 16.67371094 35.1115625 16.8125 36.0625 C16.95107422 36.97 17.08964844 37.8775 17.23242188 38.8125 C17.85583223 43.01361016 18.44089369 47.05304072 18.25 51.3125 C17.25 52.3125 17.25 52.3125 13.8125 52.5 C10.25 52.3125 10.25 52.3125 8.25 50.3125 C7.46066809 47.47781899 6.76089488 44.68109244 6.125 41.8125 C5.94324219 41.02746094 5.76148438 40.24242187 5.57421875 39.43359375 C4.25 33.62893562 4.25 33.62893562 4.25 31.3125 C0.62 31.6425 -3.01 31.9725 -6.75 32.3125 C-6.9046875 33.67375 -6.9046875 33.67375 -7.0625 35.0625 C-7.83543168 40.57532152 -9.34567091 45.93365462 -10.75 51.3125 C-13.225 51.8075 -13.225 51.8075 -15.75 52.3125 C-17.20697196 47.59490726 -16.15041725 43.68160094 -14.94921875 39.046875 C-14.75278275 38.25404114 -14.55634674 37.46120728 -14.35395813 36.64434814 C-13.72497349 34.11448635 -13.08166077 31.58853561 -12.4375 29.0625 C-11.80732334 26.55001201 -11.18008522 24.03680376 -10.55317688 21.52349854 C-10.16287479 19.96339458 -9.77013024 18.40389872 -9.37443542 16.84515381 C-8.21668548 12.27166774 -7.16481533 7.68965149 -6.20783997 3.06964111 C-5.29293145 -0.4416805 -3.30702286 0.09294887 0 0 Z " fill="#E58C43" transform="translate(394.75,60.6875)"/>
<path d="M0 0 C2.01822917 0.06510417 4.03645833 0.13020833 6.0546875 0.1953125 C8.38117415 6.4345267 9.60016415 12.32804592 10.5234375 18.9140625 C11.31327187 23.79245126 12.64822522 28.46448481 14.0546875 33.1953125 C14.45166461 34.59082097 14.84766854 35.9866071 15.2421875 37.3828125 C15.5103125 38.3109375 15.7784375 39.2390625 16.0546875 40.1953125 C19.28579786 32.70635422 21.58486318 25.13194199 23.6796875 17.2578125 C24.27102523 15.03902156 24.8671602 12.82150198 25.46875 10.60546875 C25.7260791 9.63746338 25.9834082 8.66945801 26.24853516 7.67211914 C27.0546875 5.1953125 27.0546875 5.1953125 29.0546875 2.1953125 C31.5296875 2.6903125 31.5296875 2.6903125 34.0546875 3.1953125 C32.52075117 11.00444288 30.1502583 18.4938927 27.72802734 26.06054688 C27.06338098 28.16775058 26.42414955 30.28099149 25.79296875 32.3984375 C23.42795324 40.2808929 20.73217304 47.80904368 17.0546875 55.1953125 C13.7546875 55.1953125 10.4546875 55.1953125 7.0546875 55.1953125 C3.39884886 43.47401542 0.40420917 31.77700582 -1.8203125 19.6953125 C-2.03518311 18.53281982 -2.25005371 17.37032715 -2.47143555 16.17260742 C-4.25783351 6.13527926 -4.25783351 6.13527926 -3.9453125 2.1953125 C-1.9453125 0.1953125 -1.9453125 0.1953125 0 0 Z " fill="#E48C42" transform="translate(344.9453125,60.8046875)"/>
<path d="M0 0 C4.19151334 1.02248548 6.75089061 0.7832428 10.75 -1.0625 C11.08 -0.0725 11.41 0.9175 11.75 1.9375 C12.41 1.9375 13.07 1.9375 13.75 1.9375 C13.75 3.2575 13.75 4.5775 13.75 5.9375 C14.74 5.9375 15.73 5.9375 16.75 5.9375 C16.75 5.2775 16.75 4.6175 16.75 3.9375 C18.73 2.9475 20.71 1.9575 22.75 0.9375 C22.75 1.5975 22.75 2.2575 22.75 2.9375 C23.41 2.9375 24.07 2.9375 24.75 2.9375 C25.41 5.2475 26.07 7.5575 26.75 9.9375 C23 12.9375 23 12.9375 20.75 12.9375 C22.4 15.9075 24.05 18.8775 25.75 21.9375 C21.25777202 24.93231865 21.25777202 24.93231865 18.75 25.9375 C15.8125 25.1875 15.8125 25.1875 13.75 23.9375 C13.75 22.6175 13.75 21.2975 13.75 19.9375 C13.13511719 20.24945313 12.52023438 20.56140625 11.88671875 20.8828125 C10.67435547 21.46675781 10.67435547 21.46675781 9.4375 22.0625 C8.63699219 22.45695312 7.83648438 22.85140625 7.01171875 23.2578125 C5.89216797 23.59425781 5.89216797 23.59425781 4.75 23.9375 C3.76 23.2775 2.77 22.6175 1.75 21.9375 C3.47226496 25.18599977 3.47226496 25.18599977 6.75 25.9375 C6.42 26.2675 6.09 26.5975 5.75 26.9375 C8.79213267 28.45856634 12.03047572 28.31179338 15.375 28.5 C16.08140625 28.54318359 16.7878125 28.58636719 17.515625 28.63085938 C19.26018537 28.73694751 21.00506697 28.83772889 22.75 28.9375 C23.08 29.9275 23.41 30.9175 23.75 31.9375 C23.42 32.5975 23.09 33.2575 22.75 33.9375 C23.74 34.2675 24.73 34.5975 25.75 34.9375 C19.54851231 37.00466256 10.90042593 37.20185899 4.75 34.75 C-0.92115737 31.32367576 -4.85467398 28.24098953 -7.25 21.9375 C-8.80430428 14.30727897 -8.94323649 7.26908823 -6.25 -0.0625 C-3.64660606 -1.36419697 -2.75506892 -0.78247706 0 0 Z " fill="#EB8F41" transform="translate(18.25,84.0625)"/>
<path d="M0 0 C7.2102036 -0.17738562 14.11245129 0.85922101 21.19921875 2.12109375 C21.69421875 4.59609375 21.69421875 4.59609375 22.19921875 7.12109375 C21.64572754 7.20149902 21.09223633 7.2819043 20.52197266 7.36474609 C6.09610958 9.4693309 -7.84664823 11.77708098 -21.80078125 16.12109375 C-22.46529297 16.32718262 -23.12980469 16.53327148 -23.81445312 16.74560547 C-37.77808824 21.1612583 -51.11668098 27.18706797 -62.80078125 36.12109375 C-63.13078125 36.78109375 -63.46078125 37.44109375 -63.80078125 38.12109375 C-64.79078125 37.79109375 -65.78078125 37.46109375 -66.80078125 37.12109375 C-67.05078125 34.87109375 -67.05078125 34.87109375 -66.80078125 32.12109375 C-64.92578125 29.80859375 -64.92578125 29.80859375 -62.80078125 28.12109375 C-62.14078125 28.12109375 -61.48078125 28.12109375 -60.80078125 28.12109375 C-60.80078125 27.46109375 -60.80078125 26.80109375 -60.80078125 26.12109375 C-60.14078125 26.12109375 -59.48078125 26.12109375 -58.80078125 26.12109375 C-58.47078125 25.13109375 -58.14078125 24.14109375 -57.80078125 23.12109375 C-56.1543816 21.76281404 -54.48782318 20.42855124 -52.80078125 19.12109375 C-52.47078125 18.46109375 -52.14078125 17.80109375 -51.80078125 17.12109375 C-50.81078125 16.79109375 -49.82078125 16.46109375 -48.80078125 16.12109375 C-48.47078125 15.46109375 -48.14078125 14.80109375 -47.80078125 14.12109375 C-45.8046875 13.05078125 -45.8046875 13.05078125 -43.36328125 11.99609375 C-42.56019531 11.64289062 -41.75710937 11.2896875 -40.9296875 10.92578125 C-38.80078125 10.12109375 -38.80078125 10.12109375 -36.80078125 10.12109375 C-36.80078125 9.46109375 -36.80078125 8.80109375 -36.80078125 8.12109375 C-24.91880466 2.46300966 -13.01657337 0.56278072 0 0 Z " fill="#E6572B" transform="translate(119.80078125,48.87890625)"/>
<path d="M0 0 C1.50046875 0.00386719 1.50046875 0.00386719 3.03125 0.0078125 C4.0315625 0.00523438 5.031875 0.00265625 6.0625 0 C8.53125 0.1328125 8.53125 0.1328125 9.53125 1.1328125 C9.62516296 3.03525012 9.64868658 4.94119709 9.64477539 6.84594727 C9.64469986 8.0671376 9.64462433 9.28832794 9.64454651 10.54652405 C9.63943911 11.88908936 9.63422311 13.23165425 9.62890625 14.57421875 C9.62704199 15.94042408 9.62561813 17.30663007 9.62461853 18.6728363 C9.62079394 22.27482945 9.61096417 25.8767825 9.59991455 29.47875977 C9.58969916 33.15184995 9.58512064 36.82494659 9.58007812 40.49804688 C9.56934184 47.70965373 9.55226614 54.9212275 9.53125 62.1328125 C6.68910932 63.08019273 4.85516609 63.26741809 1.90625 63.2578125 C0.71128906 63.26167969 0.71128906 63.26167969 -0.5078125 63.265625 C-2.46875 63.1328125 -2.46875 63.1328125 -3.46875 62.1328125 C-3.56790795 60.23582401 -3.59674314 58.33512463 -3.59814453 56.43554688 C-3.60129669 55.21758423 -3.60444885 53.99962158 -3.60769653 52.74475098 C-3.60590675 51.40535445 -3.6038558 50.06595826 -3.6015625 48.7265625 C-3.6022356 47.3627521 -3.60320567 45.99894182 -3.60446167 44.63513184 C-3.60593838 41.77350729 -3.60378497 38.9119139 -3.59912109 36.05029297 C-3.59342381 32.37462636 -3.59670296 28.69903276 -3.60269356 25.02336884 C-3.60629991 22.20619146 -3.60516025 19.38903152 -3.60256577 16.57185364 C-3.6018967 15.21621187 -3.60272421 13.86056854 -3.60504532 12.50492859 C-3.60757301 10.61331206 -3.60304014 8.72169001 -3.59814453 6.83007812 C-3.59734894 5.75165649 -3.59655334 4.67323486 -3.59573364 3.56213379 C-3.42330026 0.2633146 -3.30110117 0.17759089 0 0 Z " fill="#EB8F45" transform="translate(266.46875,62.8671875)"/>
<path d="M0 0 C2.03416335 3.25466136 3 5.1544104 3 9 C3.66 9 4.32 9 5 9 C8 14.75 8 14.75 8 17 C22.55628536 18.78723622 33.32434859 16.41133364 46 9 C48.29575603 6.70424397 48.32339599 5.99157475 48.625 2.875 C48.810625 0.956875 48.810625 0.956875 49 -1 C51 2 51 2 50.875 4.75 C48.88191247 12.15289653 43.69320151 20.0259116 37 24 C27.54173338 26.34803122 18.47600129 25.90600591 10 21 C10 20.34 10 19.68 10 19 C9.41347656 18.92652344 8.82695313 18.85304688 8.22265625 18.77734375 C5.2155386 17.72564531 4.27481799 16.13145692 2.4375 13.5625 C-1.15039477 8.58419612 -4.19347089 6.86298475 -10 5 C-12.80115279 3.98353047 -15.5875817 2.92847274 -18.375 1.875 C-19.11105469 1.59785156 -19.84710938 1.32070312 -20.60546875 1.03515625 C-22.40402539 0.35777777 -24.2020661 -0.32097033 -26 -1 C-26 -1.33 -26 -1.66 -26 -2 C-6.13953488 -4.60465116 -6.13953488 -4.60465116 0 0 Z " fill="#0C0507" transform="translate(92,97)"/>
<path d="M0 0 C0.66 1.32 1.32 2.64 2 4 C1.67 4.33 1.34 4.66 1 5 C1.66 5.33 2.32 5.66 3 6 C3 6.66 3 7.32 3 8 C3.66 7.67 4.32 7.34 5 7 C5.65555119 4.47266765 5.65555119 4.47266765 6 2 C6.99 2 7.98 2 9 2 C9 1.34 9 0.68 9 0 C16.40640809 -0.4856661 16.40640809 -0.4856661 19.0625 1.6875 C20.24408113 4.6020668 20.00932746 6.04965818 19 9 C18.34 9.66 17.68 10.32 17 11 C14.27130593 10.96712417 11.7033382 10.43602229 9 10 C9 10.99 9 11.98 9 13 C7 14.6875 7 14.6875 5 16 C6.11375 16.12375 7.2275 16.2475 8.375 16.375 C12 17 12 17 14 19 C14.38286803 22.73296326 14.14915785 23.77626323 12 27 C8.79800452 27.40876538 6.85551106 27.61950801 4.1875 25.6875 C3 24 3 24 2 21 C1.34 21 0.68 21 0 21 C0 22.98 0 24.96 0 27 C-0.66 26.34 -1.32 25.68 -2 25 C-2.66 25.99 -3.32 26.98 -4 28 C-4.99 27.67 -5.98 27.34 -7 27 C-7.19853069 20.28304495 -7.33139723 14.34658135 -5 8 C-4.690625 7.0925 -4.38125 6.185 -4.0625 5.25 C-2.98602211 2.97039976 -1.89525572 1.63681176 0 0 Z " fill="#EC8E40" transform="translate(144,17)"/>
<path d="M0 0 C0 0.66 0 1.32 0 2 C0.66 2 1.32 2 2 2 C2 3.32 2 4.64 2 6 C2.99 6 3.98 6 5 6 C5 5.34 5 4.68 5 4 C6.98 3.01 8.96 2.02 11 1 C11 1.66 11 2.32 11 3 C11.66 3 12.32 3 13 3 C13.66 5.31 14.32 7.62 15 10 C11.25 13 11.25 13 9 13 C10.65 15.97 12.3 18.94 14 22 C9.50777202 24.99481865 9.50777202 24.99481865 7 26 C4.0625 25.25 4.0625 25.25 2 24 C2 22.68 2 21.36 2 20 C-0.97 21.32 -3.94 22.64 -7 24 C-10.10551666 20.89448334 -10.81323934 19.10801767 -12 15 C-7.25 12 -7.25 12 -5 12 C-5 11.01 -5 10.02 -5 9 C-5.66 9 -6.32 9 -7 9 C-7.66 7.02 -8.32 5.04 -9 3 C-6.07868595 -0.19953443 -4.37453972 -1.45817991 0 0 Z " fill="#E5572B" transform="translate(30,84)"/>
<path d="M0 0 C1.38621291 2.77242582 1.32245657 5.4480214 1.5234375 8.515625 C2.67873687 14.53833317 6.30576081 18.87509187 10.25 23.375 C10.98089844 24.2259021 10.98089844 24.2259021 11.7265625 25.09399414 C14.44224841 28.24747664 17.21305387 31.3468482 20 34.4375 C24.88571493 40.08477721 26.62625465 44.62276703 26.421875 52.11328125 C25.46692116 58.64764133 22.14660088 64.80647336 17 69 C16.34 68.67 15.68 68.34 15 68 C15.639375 67.071875 16.27875 66.14375 16.9375 65.1875 C19.94691685 60.53658305 20.98799977 56.45475502 20 51 C16.33306878 41.33263588 11.1577657 34.39556523 4 27 C-6.32139086 15.85289787 -6.32139086 15.85289787 -6.4921875 9.08203125 C-5.56679204 5.16746156 -2.91724239 2.62974604 0 0 Z " fill="#EB552B" transform="translate(216,63)"/>
<path d="M0 0 C1.423125 0.4021875 1.423125 0.4021875 2.875 0.8125 C4.24452673 3.55155345 4.00121361 5.78337332 3.875 8.8125 C3.545 9.4725 3.215 10.1325 2.875 10.8125 C3.535 10.8125 4.195 10.8125 4.875 10.8125 C5.205 14.7725 5.535 18.7325 5.875 22.8125 C6.865 23.1425 7.855 23.4725 8.875 23.8125 C8.36952628 27.89305151 6.37411118 29.47522295 3.3125 32.0625 C2.48621094 32.76890625 1.65992188 33.4753125 0.80859375 34.203125 C0.17050781 34.73421875 -0.46757812 35.2653125 -1.125 35.8125 C-2.445 35.1525 -3.765 34.4925 -5.125 33.8125 C-4.135 33.3175 -4.135 33.3175 -3.125 32.8125 C-3.125 32.1525 -3.125 31.4925 -3.125 30.8125 C-3.785 30.4825 -4.445 30.1525 -5.125 29.8125 C-4.795 28.8225 -4.465 27.8325 -4.125 26.8125 C-3.465 26.8125 -2.805 26.8125 -2.125 26.8125 C-2.455 26.4825 -2.785 26.1525 -3.125 25.8125 C-4.07375 26.01875 -5.0225 26.225 -6 26.4375 C-9.125 26.8125 -9.125 26.8125 -11 25.75 C-12.61720789 22.96480863 -12.52805767 20.96978506 -12.125 17.8125 C-9.125 15.8125 -9.125 15.8125 -5.125 15.8125 C-5.125 15.1525 -5.125 14.4925 -5.125 13.8125 C-5.785 13.8125 -6.445 13.8125 -7.125 13.8125 C-7.125 12.8225 -7.125 11.8325 -7.125 10.8125 C-6.135 10.8125 -5.145 10.8125 -4.125 10.8125 C-4.785 10.1525 -5.445 9.4925 -6.125 8.8125 C-6.45802312 5.6820827 -6.60171956 3.63351702 -5 0.875 C-3.125 -0.1875 -3.125 -0.1875 0 0 Z M-7.125 29.8125 C-6.135 30.3075 -6.135 30.3075 -5.125 30.8125 C-5.785 31.4725 -6.445 32.1325 -7.125 32.8125 C-7.125 31.8225 -7.125 30.8325 -7.125 29.8125 Z " fill="#ED903F" transform="translate(177.125,20.1875)"/>
<path d="M0 0 C0.88469971 -0.00547852 1.76939941 -0.01095703 2.6809082 -0.01660156 C7.44442672 0.03631122 11.34009406 0.47522686 15.8125 2.3125 C15.8125 2.6425 15.8125 2.9725 15.8125 3.3125 C15.24442627 3.30726318 14.67635254 3.30202637 14.09106445 3.29663086 C-10.80423026 2.51451803 -10.80423026 2.51451803 -34.40234375 9.44140625 C-36.1875 10.3125 -36.1875 10.3125 -39.1875 10.3125 C-39.1875 10.9725 -39.1875 11.6325 -39.1875 12.3125 C-40.45441507 12.98658308 -41.72620749 13.65150497 -43 14.3125 C-43.70769531 14.68375 -44.41539063 15.055 -45.14453125 15.4375 C-47.1875 16.3125 -47.1875 16.3125 -50.1875 16.3125 C-50.5175 17.3025 -50.8475 18.2925 -51.1875 19.3125 C-52.1775 19.3125 -53.1675 19.3125 -54.1875 19.3125 C-54.5175 20.3025 -54.8475 21.2925 -55.1875 22.3125 C-55.8475 22.3125 -56.5075 22.3125 -57.1875 22.3125 C-57.5175 23.3025 -57.8475 24.2925 -58.1875 25.3125 C-59.625 27 -59.625 27 -61.1875 28.3125 C-61.8475 28.3125 -62.5075 28.3125 -63.1875 28.3125 C-63.1875 28.9725 -63.1875 29.6325 -63.1875 30.3125 C-65.0625 32.4375 -65.0625 32.4375 -67.1875 34.3125 C-67.8475 34.3125 -68.5075 34.3125 -69.1875 34.3125 C-69.1875 31.3125 -69.1875 31.3125 -67.125 29.0625 C-66.14778609 28.14375188 -65.16837869 27.22733449 -64.1875 26.3125 C-62.9751941 25.10815234 -61.76699129 23.8996632 -60.5625 22.6875 C-59.4375 21.5625 -58.3125 20.4375 -57.1875 19.3125 C-56.71054688 18.79816406 -56.23359375 18.28382812 -55.7421875 17.75390625 C-53.93615488 16.07946897 -52.10935651 15.03307034 -49.9375 13.875 C-47.16959939 12.38630627 -44.44069418 10.87336419 -41.75 9.25 C-28.74892391 1.93873726 -14.71153252 0.0667947 0 0 Z " fill="#E28B45" transform="translate(122.1875,46.6875)"/>
<path d="M0 0 C0.96225042 2.56404533 1.12937582 3.67145351 0.109375 6.26171875 C-0.33921875 7.06222656 -0.7878125 7.86273438 -1.25 8.6875 C-3.01459781 12.03381013 -4.63850036 15.31891502 -5.9375 18.875 C-6.19402344 19.57367188 -6.45054687 20.27234375 -6.71484375 20.9921875 C-7.0835018 23.5879442 -6.15926835 24.69950638 -5 27 C-5.375 29.25 -5.375 29.25 -6 31 C-9.52812722 24.85097827 -12.07391415 20.15942765 -11 13 C-9.125 9.5 -9.125 9.5 -7 7 C-6.34 7 -5.68 7 -5 7 C-4.731875 6.401875 -4.46375 5.80375 -4.1875 5.1875 C-3.01506533 3.02775192 -1.80630718 1.64209744 0 0 Z " fill="#150A0C" transform="translate(146,65)"/>
<path d="M0 0 C2 3 2 3 1.875 5.75 C-0.12472692 13.17755712 -5.30839885 20.98503931 -12 25 C-12.99 25 -13.98 25 -15 25 C-14.34 23.02 -13.68 21.04 -13 19 C-15.64 19 -18.28 19 -21 19 C-17.21754269 16.47836179 -13.23357794 15.05565058 -9.0078125 13.4140625 C-5.84281331 11.92610184 -3.51127572 10.43435376 -1 8 C-0.20133431 5.90039215 -0.20133431 5.90039215 -0.1875 3.75 C-0.0946875 1.89375 -0.0946875 1.89375 0 0 Z " fill="#1F0C07" transform="translate(141,96)"/>
<path d="M0 0 C1.423125 0.4021875 1.423125 0.4021875 2.875 0.8125 C4.24452673 3.55155345 4.00121361 5.78337332 3.875 8.8125 C3.545 9.4725 3.215 10.1325 2.875 10.8125 C0 11.625 0 11.625 -3.125 11.8125 C-5 10.75 -5 10.75 -6.125 8.8125 C-6.52204314 5.63615485 -6.62433741 3.67246999 -5 0.875 C-3.125 -0.1875 -3.125 -0.1875 0 0 Z " fill="#E45A2B" transform="translate(177.125,20.1875)"/>
<path d="M0 0 C1.875 1.6875 1.875 1.6875 3 4 C2.75925978 7.37036311 2.41201979 8.58798021 0 11 C-6.57692308 10.42307692 -6.57692308 10.42307692 -8 9 C-8.45875252 3.72434608 -8.45875252 3.72434608 -6.8125 1.125 C-4.31963619 -0.42229478 -2.88032665 -0.50405716 0 0 Z " fill="#E5592B" transform="translate(161,17)"/>
<path d="M0 0 C2.1519437 3.22791555 2.20086443 4.28400809 2 8 C1.34 8 0.68 8 0 8 C0 8.66 0 9.32 0 10 C-5.42465753 11.3260274 -5.42465753 11.3260274 -7.875 9.9375 C-9.49220789 7.15230863 -9.40305767 5.15728506 -9 2 C-5.54970958 -0.30019361 -4.05445642 -0.43132515 0 0 Z " fill="#E35929" transform="translate(174,36)"/>
<path d="M0 0 C1.8125 0.8125 1.8125 0.8125 3.8125 2.8125 C3.65256374 5.93125698 3.20636255 7.39050441 1.0625 9.6875 C-1.80289161 11.12019581 -3.18918883 10.78492524 -6.1875 9.8125 C-7.1875 8.8125 -7.1875 8.8125 -7.5625 5.9375 C-7.1875 2.8125 -7.1875 2.8125 -4.9375 0.875 C-2.1875 -0.1875 -2.1875 -0.1875 0 0 Z " fill="#DE8840" transform="translate(271.1875,47.1875)"/>
<path d="M0 0 C2 2 2 2 2.25 4.4375 C2 7 2 7 0 10 C-3.16259871 10.40373601 -5.14012639 10.54458662 -7.875 8.8125 C-9.39684676 6.36063578 -9.43566323 4.83181098 -9 2 C-5.54754176 -0.30163882 -4.05261287 -0.34490322 0 0 Z " fill="#E6572C" transform="translate(156,34)"/>
<path d="M0 0 C0.70189453 -0.02126953 1.40378906 -0.04253906 2.12695312 -0.06445312 C7.12995877 -0.09828988 7.12995877 -0.09828988 9.6015625 1.640625 C10.625 3.25 10.625 3.25 10.625 5.25 C11.945 5.25 13.265 5.25 14.625 5.25 C14.74875 5.971875 14.8725 6.69375 15 7.4375 C16.22701392 12.95906264 18.78290118 17.418432 21.625 22.25 C19.8125 22.125 19.8125 22.125 17.625 21.25 C14.625 16.21428571 14.625 16.21428571 14.625 13.25 C13.965 13.25 13.305 13.25 12.625 13.25 C12.39425781 12.62351562 12.16351563 11.99703125 11.92578125 11.3515625 C11.43658203 10.12566406 11.43658203 10.12566406 10.9375 8.875 C10.62425781 8.06289062 10.31101562 7.25078125 9.98828125 6.4140625 C8.20394749 3.58162439 6.8243591 3.11280092 3.625 2.25 C-3.35685551 1.61723583 -10.4383929 2.40737528 -17.375 3.25 C-17.375 2.59 -17.375 1.93 -17.375 1.25 C-11.58016207 0.42216601 -5.84663585 0.08962381 0 0 Z " fill="#E08E47" transform="translate(82.375,92.75)"/>
<path d="M0 0 C0.66 0 1.32 0 2 0 C2.50636607 1.74816858 3.00484619 3.49862263 3.5 5.25 C3.7784375 6.22453125 4.056875 7.1990625 4.34375 8.203125 C5 11 5 11 5 15 C2.525 16.485 2.525 16.485 0 18 C0 12.06 0 6.12 0 0 Z " fill="#EB572C" transform="translate(292,67)"/>
<path d="M0 0 C0.66 0 1.32 0 2 0 C3.29243536 4.1196377 4.26252625 7.66831683 4 12 C1.69 12.33 -0.62 12.66 -3 13 C-2.68991116 11.39536551 -2.37683713 9.79130769 -2.0625 8.1875 C-1.88847656 7.29417969 -1.71445312 6.40085937 -1.53515625 5.48046875 C-1 3 -1 3 0 0 Z " fill="#2A190C" transform="translate(393,75)"/>
<path d="M0 0 C0.99 0 1.98 0 3 0 C2.75 2.875 2.75 2.875 2 6 C-0.0625 7.375 -0.0625 7.375 -2 8 C-1.67 9.65 -1.34 11.3 -1 13 C-1.66 13 -2.32 13 -3 13 C-3.33 12.34 -3.66 11.68 -4 11 C-4 12.98 -4 14.96 -4 17 C-6.475 16.01 -6.475 16.01 -9 15 C-8.60167969 14.41992188 -8.20335937 13.83984375 -7.79296875 13.2421875 C-4.87248393 8.9360712 -2.18115554 4.725837 0 0 Z " fill="#E08F48" transform="translate(142,103)"/>
<path d="M0 0 C6.35987804 -0.20190089 11.85221129 0.3722167 18 2 C16.83984375 3.5390625 16.83984375 3.5390625 15 5 C12.44140625 4.9609375 12.44140625 4.9609375 9.5625 4.375 C8.14130859 4.10816406 8.14130859 4.10816406 6.69140625 3.8359375 C3.90826783 2.97150844 2.19918865 1.88204797 0 0 Z " fill="#E48F48" transform="translate(90,136)"/>
<path d="M0 0 C-0.33 1.32 -0.66 2.64 -1 4 C-1.75925781 4.13277344 -2.51851562 4.26554687 -3.30078125 4.40234375 C-4.29464844 4.57894531 -5.28851563 4.75554687 -6.3125 4.9375 C-7.79169922 5.19853516 -7.79169922 5.19853516 -9.30078125 5.46484375 C-12.08189213 5.95746847 -12.08189213 5.95746847 -15 7 C-15.99 6.34 -16.98 5.68 -18 5 C-13.545 4.505 -13.545 4.505 -9 4 C-8.67 3.01 -8.34 2.02 -8 1 C-5.07175348 0.02391783 -3.04386724 -0.08226668 0 0 Z " fill="#170908" transform="translate(59,114)"/>
<path d="M0 0 C0.66 0.33 1.32 0.66 2 1 C1.67 1.66 1.34 2.32 1 3 C1.66 3 2.32 3 3 3 C3 3.66 3 4.32 3 5 C-5.03501094 8.25601751 -5.03501094 8.25601751 -9.0625 7.1875 C-9.701875 6.795625 -10.34125 6.40375 -11 6 C-8.90464017 3.90464017 -7.68072225 3.38841733 -4.9375 2.4375 C-2.23198802 1.60255667 -2.23198802 1.60255667 0 0 Z " fill="#190D08" transform="translate(142,136)"/>
<path d="M0 0 C-4.62 0.33 -9.24 0.66 -14 1 C-13.34 1.66 -12.68 2.32 -12 3 C-15.9492568 2.44894091 -19.34920174 1.61064629 -23 0 C-23 -0.33 -23 -0.66 -23 -1 C-5.03424658 -3.35616438 -5.03424658 -3.35616438 0 0 Z " fill="#32160A" transform="translate(89,96)"/>
<path d="M0 0 C5.61 0 11.22 0 17 0 C17 0.66 17 1.32 17 2 C13.6649553 4.36232333 10.91055721 4.03670794 6.97265625 3.42578125 C4.50904207 2.89403086 2.27963776 2.0685802 0 1 C0 0.67 0 0.34 0 0 Z " fill="#F0913A" transform="translate(21,115)"/>
<path d="M0 0 C0.99 0.33 1.98 0.66 3 1 C3.19491452 2.45736087 3.38069358 3.91594593 3.5625 5.375 C3.66691406 6.18710938 3.77132813 6.99921875 3.87890625 7.8359375 C4 10 4 10 3 12 C3.27942455 13.67654729 3.60828247 15.34608154 4 17 C3.34 17 2.68 17 2 17 C0.4943096 11.19233704 -0.21824777 6.0018137 0 0 Z " fill="#E08D47" transform="translate(10,91)"/>
<path d="M0 0 C6.27 0 12.54 0 19 0 C19 0.33 19 0.66 19 1 C16.69 1 14.38 1 12 1 C12 1.66 12 2.32 12 3 C10.37509046 3.02698189 8.75005367 3.04638757 7.125 3.0625 C5.76761719 3.07990234 5.76761719 3.07990234 4.3828125 3.09765625 C2 3 2 3 0 2 C0 1.34 0 0.68 0 0 Z " fill="#200E07" transform="translate(110,142)"/>
<path d="M0 0 C0.33 0.66 0.66 1.32 1 2 C1.66 2 2.32 2 3 2 C3.49230769 8.4 3.49230769 8.4 1 11.4375 C0.01 12.2109375 0.01 12.2109375 -1 13 C-2.5029278 10.46875317 -3.2006987 8.79254012 -2.46484375 5.88671875 C-1.7028501 3.89135862 -0.89496636 1.93909378 0 0 Z " fill="#E18E43" transform="translate(141,79)"/>
<path d="M0 0 C0 0.99 0 1.98 0 3 C-1.32 3 -2.64 3 -4 3 C-4 2.34 -4 1.68 -4 1 C-4.495 1.639375 -4.99 2.27875 -5.5 2.9375 C-8.98806387 5.81515269 -11.53461041 5.70230736 -16 6 C-12.12738334 0.19107501 -6.59466493 -0.403755 0 0 Z " fill="#E7904C" transform="translate(162,11)"/>
<path d="M0 0 C2 3 2 3 1.875 5.75 C0.81105013 9.70181381 -0.84707542 12.52754099 -3 16 C-3.99 16 -4.98 16 -6 16 C-6 14.68 -6 13.36 -6 12 C-5.195625 11.4225 -4.39125 10.845 -3.5625 10.25 C-0.74225446 7.77368685 -0.59731532 7.27689548 -0.1875 3.75 C-0.125625 2.5125 -0.06375 1.275 0 0 Z " fill="#23110B" transform="translate(141,96)"/>
<path d="M0 0 C-0.33589994 3.13506611 -1.02665172 4.025249 -3.375 6.25 C-6 8 -6 8 -9 8 C-8.690625 7.401875 -8.38125 6.80375 -8.0625 6.1875 C-6.89790296 3.91043228 -6.89790296 3.91043228 -6 1 C-4 0 -4 0 0 0 Z " fill="#120807" transform="translate(135,113)"/>
<path d="M0 0 C1.06541016 -0.00676758 1.06541016 -0.00676758 2.15234375 -0.01367188 C7.31494046 0.00122023 7.31494046 0.00122023 9.5625 1.125 C9.2325 2.115 8.9025 3.105 8.5625 4.125 C7.84449219 3.79886719 7.12648438 3.47273438 6.38671875 3.13671875 C-0.96700616 0.50239683 -9.82384455 2.20013079 -17.4375 3.125 C-17.4375 2.465 -17.4375 1.805 -17.4375 1.125 C-11.60311605 0.29151658 -5.88447419 0.01581848 0 0 Z " fill="#D68B4D" transform="translate(82.4375,92.875)"/>
<path d="M0 0 C3 5.75 3 5.75 3 8 C3.66 8.33 4.32 8.66 5 9 C4.01 9.495 4.01 9.495 3 10 C-0.63094642 7.35039045 -2.89851796 4.98175544 -5 1 C-2 0 -2 0 0 0 Z " fill="#240E08" transform="translate(97,106)"/>
<path d="M0 0 C0.99 0.33 1.98 0.66 3 1 C3 1.66 3 2.32 3 3 C3.61875 3.12375 4.2375 3.2475 4.875 3.375 C7 4 7 4 9 6 C5.7 6 2.4 6 -1 6 C-0.67 4.02 -0.34 2.04 0 0 Z " fill="#DE8E45" transform="translate(99,115)"/>
<path d="M0 0 C1.051875 0.763125 2.10375 1.52625 3.1875 2.3125 C6.04744265 4.35863783 8.95019284 6.24405042 12 8 C10.02 8.99 10.02 8.99 8 10 C6.5 8.625 6.5 8.625 5 7 C5 6.34 5 5.68 5 5 C4.01 5 3.02 5 2 5 C1.34 3.35 0.68 1.7 0 0 Z " fill="#160B06" transform="translate(69,124)"/>
<path d="M0 0 C0.99 0 1.98 0 3 0 C2.67 1.98 2.34 3.96 2 6 C0.02 6.66 -1.96 7.32 -4 8 C-2.68 5.36 -1.36 2.72 0 0 Z " fill="#DF883D" transform="translate(142,103)"/>
<path d="M0 0 C1.65 0 3.3 0 5 0 C4.79375 0.5775 4.5875 1.155 4.375 1.75 C3.76871373 4.02757055 3.76871373 4.02757055 5 6 C6.24546405 8.49092811 5.7767578 9.41080733 5 12 C4.16180842 10.37750059 3.3295884 8.75191503 2.5 7.125 C2.0359375 6.22007813 1.571875 5.31515625 1.09375 4.3828125 C0 2 0 2 0 0 Z " fill="#210D07" transform="translate(135,84)"/>
<path d="M0 0 C2.65197185 2.65197185 3.584501 5.55356766 5 9 C5.33 9.66 5.66 10.32 6 11 C4.68 11 3.36 11 2 11 C2 9.68 2 8.36 2 7 C1.34 7 0.68 7 0 7 C0 4.69 0 2.38 0 0 Z " fill="#0D070B" transform="translate(8,99)"/>
<path d="M0 0 C1.5 1.3125 1.5 1.3125 3 3 C3 3.99 3 4.98 3 6 C3.66 6 4.32 6 5 6 C5 6.99 5 7.98 5 9 C3.35 9.33 1.7 9.66 0 10 C0.185625 9.278125 0.37125 8.55625 0.5625 7.8125 C1.01995307 4.87173027 0.73516357 2.85896942 0 0 Z " fill="#F38641" transform="translate(20,87)"/>
<path d="M0 0 C0.33 0 0.66 0 1 0 C1.3125 3.3125 1.3125 3.3125 1 7 C-1.5 8.9375 -1.5 8.9375 -4 10 C-2.99806563 6.20696275 -2.18975773 3.28463659 0 0 Z " fill="#1B0C05" transform="translate(164,112)"/>
<path d="M0 0 C0 0.99 0 1.98 0 3 C-2.97 3 -5.94 3 -9 3 C-9 2.34 -9 1.68 -9 1 C-6.04335481 -0.4783226 -3.25770263 -0.06032783 0 0 Z " fill="#F98E32" transform="translate(92,106)"/>
<path d="M0 0 C1.67542976 0.28604898 3.34385343 0.61781233 5 1 C4.34 1.66 3.68 2.32 3 3 C2.01 3 1.02 3 0 3 C0 3.66 0 4.32 0 5 C-1.32 4.67 -2.64 4.34 -4 4 C-4 3.01 -4 2.02 -4 1 C-3.01 1 -2.02 1 -1 1 C-0.67 0.67 -0.34 0.34 0 0 Z " fill="#EA5331" transform="translate(65,73)"/>
<path d="M0 0 C2.475 0.495 2.475 0.495 5 1 C5 3 5 5 5 7 C3.68 7 2.36 7 1 7 C1.33 5.02 1.66 3.04 2 1 C1.34 0.67 0.68 0.34 0 0 Z " fill="#E18D46" transform="translate(171,11)"/>
<path d="M0 0 C1.98 0 3.96 0 6 0 C7.35439668 2.70879335 7.06501451 5.00933268 7 8 C5 5 5 5 5 3 C4.01 3 3.02 3 2 3 C2 2.34 2 1.68 2 1 C1.34 0.67 0.68 0.34 0 0 Z " fill="#E88437" transform="translate(136,48)"/>
<path d="M0 0 C4 1 4 1 5.25 3.0625 C5.4975 3.701875 5.745 4.34125 6 5 C5.01 6.485 5.01 6.485 4 8 C3.34 8 2.68 8 2 8 C1.34 5.36 0.68 2.72 0 0 Z " fill="#160E0C" transform="translate(187,21)"/>
<path d="M0 0 C0.33 0.99 0.66 1.98 1 3 C1.66 3 2.32 3 3 3 C2.8125 4.875 2.8125 4.875 2 7 C-0.5625 8.25 -0.5625 8.25 -3 9 C-2.67 7.68 -2.34 6.36 -2 5 C-1.34 5 -0.68 5 0 5 C0 3.35 0 1.7 0 0 Z " fill="#E89149" transform="translate(162,107)"/>
<path d="M0 0 C0.66 0 1.32 0 2 0 C2 1.32 2 2.64 2 4 C3.65 4.33 5.3 4.66 7 5 C7 5.33 7 5.66 7 6 C3.625 6.1875 3.625 6.1875 0 6 C-0.66 5.01 -1.32 4.02 -2 3 C-1.01 3 -0.02 3 1 3 C0.67 2.01 0.34 1.02 0 0 Z " fill="#CB7A33" transform="translate(107,110)"/>
<path d="M0 0 C0 1.32 0 2.64 0 4 C-2.97 4 -5.94 4 -9 4 C-9 3.34 -9 2.68 -9 2 C-2.25 0 -2.25 0 0 0 Z " fill="#DE8C4A" transform="translate(62,111)"/>
<path d="M0 0 C0.99 0.33 1.98 0.66 3 1 C3 2.98 3 4.96 3 7 C2.01 7.33 1.02 7.66 0 8 C0 5.36 0 2.72 0 0 Z " fill="#CD7C34" transform="translate(10,91)"/>
<path d="M0 0 C0.66 0 1.32 0 2 0 C2 0.66 2 1.32 2 2 C4.31 1.34 6.62 0.68 9 0 C9 0.66 9 1.32 9 2 C7.02 2.99 5.04 3.98 3 5 C1.5 3.625 1.5 3.625 0 2 C0 1.34 0 0.68 0 0 Z " fill="#DF5F28" transform="translate(20,103)"/>
<path d="M0 0 C1.65 0.33 3.3 0.66 5 1 C5 1.66 5 2.32 5 3 C3.02 3.66 1.04 4.32 -1 5 C-1 4.34 -1 3.68 -1 3 C-1.66 2.67 -2.32 2.34 -3 2 C-2.01 2 -1.02 2 0 2 C0 1.34 0 0.68 0 0 Z " fill="#140D0A" transform="translate(83,51)"/>
<path d="M0 0 C0.90105469 0.00902344 1.80210938 0.01804687 2.73046875 0.02734375 C3.41753906 0.03894531 4.10460938 0.05054687 4.8125 0.0625 C4.8125 0.3925 4.8125 0.7225 4.8125 1.0625 C3.1728125 1.2790625 3.1728125 1.2790625 1.5 1.5 C-2.11872987 1.94538104 -2.11872987 1.94538104 -5.1875 3.0625 C-6.1775 2.4025 -7.1675 1.7425 -8.1875 1.0625 C-5.17259443 0.05753148 -3.14568308 -0.04085303 0 0 Z " fill="#1E130E" transform="translate(49.1875,117.9375)"/>
<path d="M0 0 C0.66 0 1.32 0 2 0 C1.4140625 6.15234375 1.4140625 6.15234375 1 8 C0.01 8.495 0.01 8.495 -1 9 C-0.67 6.03 -0.34 3.06 0 0 Z " fill="#E79349" transform="translate(160,98)"/>
<path d="M0 0 C0.99 0.99 1.98 1.98 3 3 C2.01 3.33 1.02 3.66 0 4 C0 4.99 0 5.98 0 7 C-1.32 6.34 -2.64 5.68 -4 5 C-3.01 4.34 -2.02 3.68 -1 3 C-0.67 2.01 -0.34 1.02 0 0 Z " fill="#190B07" transform="translate(53,74)"/>
<path d="M0 0 C0.66 0 1.32 0 2 0 C2 3 2 6 2 9 C0.5 7.8125 0.5 7.8125 -1 6 C-1.25 3.375 -1.25 3.375 -1 1 C-0.67 0.67 -0.34 0.34 0 0 Z " fill="#DE5D24" transform="translate(148,35)"/>
<path d="M0 0 C-0.804375 0.28875 -1.60875 0.5775 -2.4375 0.875 C-5.1326468 1.73262568 -5.1326468 1.73262568 -6 4 C-6 3.34 -6 2.68 -6 2 C-6.66 2 -7.32 2 -8 2 C-8 1.34 -8 0.68 -8 0 C-4.94736336 -0.98120464 -3.05263664 -0.98120464 0 0 Z " fill="#00050F" transform="translate(128,115)"/>
<path d="M0 0 C2.31 0.33 4.62 0.66 7 1 C7 1.66 7 2.32 7 3 C5.02 3 3.04 3 1 3 C0.67 2.01 0.34 1.02 0 0 Z " fill="#F58E36" transform="translate(110,112)"/>
<path d="M0 0 C2.97 0 5.94 0 9 0 C5.71299843 1.64350079 3.52069985 2.41321669 0 3 C0 2.01 0 1.02 0 0 Z " fill="#0B0402" transform="translate(77,97)"/>
<path d="M0 0 C0.66 0 1.32 0 2 0 C1.67 2.97 1.34 5.94 1 9 C-0.74627478 6.38058783 -1.38722388 4.96175123 -2 2 C-1.34 2 -0.68 2 0 2 C0 1.34 0 0.68 0 0 Z " fill="#E18F4F" transform="translate(143,93)"/>
<path d="M0 0 C-2.35968744 2.09749995 -3.54616994 2.96905704 -6.75 3.1875 C-7.86375 3.0946875 -7.86375 3.0946875 -9 3 C-6.38997624 -0.48003168 -4.1689578 -0.27793052 0 0 Z " fill="#F78943" transform="translate(106,63)"/>
<path d="M0 0 C0.99 0.66 1.98 1.32 3 2 C0.69 3.32 -1.62 4.64 -4 6 C-4 4.68 -4 3.36 -4 2 C-2.68 2 -1.36 2 0 2 C0 1.34 0 0.68 0 0 Z " fill="#1D0C04" transform="translate(75,56)"/>
<path d="M0 0 C-0.75 1.9375 -0.75 1.9375 -2 4 C-4.125 4.75 -4.125 4.75 -6 5 C-5.625 3.0625 -5.625 3.0625 -5 1 C-3 0 -3 0 0 0 Z " fill="#120A0B" transform="translate(140,23)"/>
<path d="M0 0 C3.91402949 1.26941497 5.79072873 2.51167694 8 6 C5.21788056 5.62403791 3.4120716 5.32681541 1.1875 3.5625 C0 2 0 2 0 0 Z " fill="#DD9251" transform="translate(178,14)"/>
</svg>
